<svg width="242" height="305" viewBox="0 0 242 305" fill="none" xmlns="http://www.w3.org/2000/svg">
<g clip-path="url(#clip0_60_260)">
<path d="M120.792 305C180.627 305 229.133 301.592 229.133 297.387C229.133 293.183 180.627 289.774 120.792 289.774C60.9569 289.774 12.4509 293.183 12.4509 297.387C12.4509 301.592 60.9569 305 120.792 305Z" fill="#F1F1F1"/>
<path d="M232.881 9.09821L188.095 0L186.794 6.12737L186.98 6.31305L167.096 101.38L173.414 102.68L193.298 7.42711L231.58 15.2256L232.881 9.09821Z" fill="#FFF6F8"/>
<path d="M194.599 7.79845L193.298 7.4271L192.741 9.84091C190.697 7.79845 188.838 5.94167 187.352 3.89922L188.095 0.371338C189.767 2.78515 191.997 5.19896 194.599 7.79845Z" fill="#FF4A32"/>
<path d="M200.36 8.91254L197.015 8.16983C195.714 5.75602 194.785 3.34221 193.856 1.11407L197.015 1.67111C197.944 4.08492 198.873 6.49873 200.36 8.91254Z" fill="#FF4A32"/>
<path d="M209.094 10.7693L205.749 10.0266C204.448 7.61277 203.333 5.19896 202.404 2.97083L205.563 3.52786C206.493 5.75599 207.793 8.16981 209.094 10.7693Z" fill="#FF4A32"/>
<path d="M218.014 12.6261L214.483 11.8833C212.997 9.46953 211.882 7.05572 210.953 4.64191L214.298 5.38462C215.227 7.61275 216.528 10.0266 218.014 12.6261Z" fill="#FF4A32"/>
<path d="M227.12 14.4829L223.403 13.7402C221.917 11.1407 220.616 8.72685 219.501 6.49872L222.846 7.24143C223.961 9.46956 225.448 11.8834 227.12 14.4829Z" fill="#FF4A32"/>
<path d="M232.509 10.3979L231.766 14.4828C230.465 12.2547 229.35 10.2123 228.421 8.1698L231.766 8.91251C231.952 9.46954 232.138 9.8409 232.509 10.3979Z" fill="#FF4A32"/>
<path d="M191.44 15.7826L190.697 18.9391C188.652 17.0823 186.98 15.0399 185.307 13.1831L186.051 9.65521C187.723 11.6977 189.396 13.7401 191.44 15.7826Z" fill="#FF4A32"/>
<path d="M189.582 24.8808L188.838 28.0373C186.794 26.1805 185.122 24.1381 183.449 22.2813L184.192 18.7534C185.865 20.7959 187.537 22.8383 189.582 24.8808Z" fill="#FF4A32"/>
<path d="M187.723 33.979L187.166 37.1356C185.122 35.0931 183.449 33.2363 181.777 31.3796L182.52 27.8517C184.007 29.8941 185.679 31.9366 187.723 33.979Z" fill="#FF4A32"/>
<path d="M185.865 43.0773L185.307 46.2338C183.263 44.377 181.591 42.3345 179.918 40.4778L180.662 36.9499C181.962 38.9923 183.821 41.0348 185.865 43.0773Z" fill="#FF4A32"/>
<path d="M183.821 52.1755L183.077 55.332C181.033 53.2895 179.361 51.4328 177.688 49.576L178.432 46.0481C180.104 48.0906 181.777 50.133 183.821 52.1755Z" fill="#FF4A32"/>
<path d="M181.777 62.0164L181.219 64.4302C179.175 62.5734 177.502 60.5309 176.016 58.6742L176.573 55.7033C177.874 57.5601 179.361 59.4169 181.033 61.2736C181.405 61.4593 181.591 61.8307 181.777 62.0164Z" fill="#FF4A32"/>
<path d="M180.104 70.3719L179.361 73.5284C177.317 71.6716 175.644 69.6292 173.972 67.7724L174.715 64.2445C176.387 66.287 178.06 68.3294 180.104 70.3719Z" fill="#FF4A32"/>
<path d="M178.06 79.6558L177.317 82.6266V82.8123C177.317 82.8123 177.317 82.8123 177.317 82.6266C175.644 80.7698 173.786 78.913 172.113 77.2419C171.927 77.0563 171.927 77.0563 171.742 76.8706L172.671 73.3427L172.857 73.5284C174.343 75.5708 176.016 77.4276 178.06 79.6558C178.06 79.4701 178.06 79.6558 178.06 79.6558Z" fill="#FF4A32"/>
<path d="M176.202 88.754L175.458 91.9105C173.6 90.0537 171.927 88.1969 170.255 86.3401C170.069 86.1545 170.069 86.1545 169.883 85.9688L170.812 82.4409L170.998 82.6266C172.485 84.669 174.157 86.5258 176.202 88.754C176.202 88.5683 176.202 88.754 176.202 88.754Z" fill="#FF4A32"/>
<path d="M191.626 0.742711L170.812 93.5816L168.768 93.2103L170.069 86.3402L169.883 85.9688L170.812 82.6266L170.998 82.441L171.927 77.242L171.742 76.8706L172.671 73.5284L172.857 73.3427L173.972 67.7724L174.715 64.2445L176.016 58.6742L176.573 55.7033L176.759 55.1463L177.874 49.576L178.617 46.0481L179.732 40.4778L180.476 36.9499L181.777 31.3795L182.334 27.8517L183.635 22.2813L184.378 18.7535L185.493 13.1831L186.237 9.65525L186.98 6.31305L186.794 6.12737L187.352 3.89923L188.095 0.371356V0L191.626 0.742711Z" fill="#9FBFD4" style="mix-blend-mode:multiply"/>
<path d="M223.187 238.342H146.995L131.199 71.7886H238.982L223.187 238.342Z" fill="#FFF6F8"/>
<path d="M232.292 141.975C228.762 139.747 224.859 138.261 220.585 137.704C206.09 136.219 200.887 149.402 188.25 146.617C171.525 142.903 173.383 117.837 152.198 97.5979C146.437 92.0275 139.561 87.5713 132.5 84.0434L139.747 160.357C152.198 169.827 169.109 178.925 186.206 175.026C204.417 170.941 207.577 155.344 222.815 155.529C225.602 155.529 228.39 156.272 230.992 157.2L232.292 141.975Z" fill="#FF4A32"/>
<path d="M131.942 77.916H238.425L238.982 71.7886H131.199L131.942 77.916Z" fill="#DEDEDE"/>
<path d="M241.584 61.9477H127.11V74.3881H241.584V61.9477Z" fill="#FFF6F8"/>
<path d="M214.081 55.0776H154.614V64.3615H214.081V55.0776Z" fill="#FFF6F8"/>
<path d="M184.533 227.572C157.773 196.75 159.817 159.057 163.534 92.2132C163.906 84.4147 165.021 74.9452 171.896 69.7462C176.914 65.8469 184.161 64.9186 183.976 63.0618C183.79 61.5764 178.401 62.3191 175.241 58.9769C174.312 57.8628 173.755 56.5631 173.383 55.2633H154.614V62.3191H127.11V74.7595H131.57L146.995 238.527H195.683C191.966 235.371 188.25 231.843 184.533 227.572Z" fill="#9FBFD4" style="mix-blend-mode:multiply"/>
<path d="M75.2627 161.099L97.5628 75.8726L107.97 78.4721L111.686 80.7002L89.572 165.926L79.1653 163.327L75.2627 161.099Z" fill="#E6C82E"/>
<path d="M75.3027 161.206L85.734 163.915L107.943 78.5581L97.5117 75.8486L75.3027 161.206Z" fill="#D4942A"/>
<path d="M108.713 89.9851C107.412 97.7836 104.439 105.396 103.695 105.025C103.695 105.025 103.51 104.839 103.51 103.168C104.067 94.8128 108.341 84.0434 109.27 84.4148C109.642 84.6005 109.27 87.2 108.713 89.9851Z" fill="#EDE92F"/>
<path d="M102.952 108.739C103.138 110.595 101.837 114.309 101.094 115.237C101.094 115.423 100.908 115.423 100.536 115.237C99.2353 114.309 101.465 108.739 102.395 107.81C102.766 107.439 102.952 107.996 102.952 108.739Z" fill="#EDE92F"/>
<path d="M84.9258 142.161L74.705 54.5206L85.4833 53.4065L89.7575 53.9635L99.9784 141.603L89.2 142.718L84.9258 142.161Z" fill="#E6C82E"/>
<path d="M84.8665 142.248L95.5727 141.003L85.3686 53.3975L74.6624 54.6424L84.8665 142.248Z" fill="#D4942A"/>
<path d="M90.3153 63.6188C91.802 71.2316 91.802 79.4014 91.0586 79.5871C91.0586 79.5871 90.8728 79.4014 90.3153 77.916C87.8994 69.9319 87.8995 58.4199 88.8286 58.4199C89.2003 58.4199 89.7578 61.0193 90.3153 63.6188Z" fill="#EDE92F"/>
<path d="M91.802 83.3007C92.7311 84.9718 92.7311 89.0567 92.3595 89.9851C92.3595 90.1708 92.1736 90.3565 91.802 90.1708C90.3153 89.6138 90.3153 83.8577 90.8728 82.7437C91.0586 82.1866 91.4303 82.7437 91.802 83.3007Z" fill="#EDE92F"/>
<path d="M34.0076 135.848L19.5126 48.7646L8.92003 50.6214L4.83168 52.4782L19.5126 139.375L30.1051 137.519L34.0076 135.848Z" fill="#D4942A"/>
<path d="M19.5662 48.8388L8.93657 50.6232L23.5631 137.603L34.1927 135.819L19.5662 48.8388Z" fill="#E6C82E"/>
<path d="M13.7517 57.4915C13.7517 65.4756 17.2826 73.0884 18.7692 72.7171C18.9551 72.7171 19.3267 72.5314 19.6984 70.6746C21.5567 61.9477 16.3534 51.3641 14.6809 51.7355C13.5659 52.1068 13.5659 54.7063 13.7517 57.4915Z" fill="#EDE92F"/>
<path d="M18.7692 76.6163C17.4684 78.6587 19.1409 82.3723 20.4417 83.115C20.6276 83.3007 20.9992 83.3007 21.5567 83.115C24.5301 82.0009 21.9284 76.4306 20.4417 75.6879C19.6984 75.1309 19.3267 75.8736 18.7692 76.6163Z" fill="#EDE92F"/>
<path d="M37.7238 118.394L32.7062 30.1969L43.2988 29.6398L47.573 30.5682L52.5905 118.579L41.8121 119.137L37.7238 118.394Z" fill="#E6C82E"/>
<path d="M37.603 118.39L48.3642 117.783L43.3851 29.727L32.624 30.3344L37.603 118.39Z" fill="#D4942A"/>
<path d="M47.5735 40.2235C48.6885 48.022 48.131 56.1918 47.3877 56.1918C47.3877 56.1918 47.2018 56.0061 46.6443 54.335C44.6002 46.1652 45.5293 34.6531 46.2727 34.8388C46.8302 34.8388 47.2018 37.624 47.5735 40.2235Z" fill="#EDE92F"/>
<path d="M47.9452 59.9053C48.8743 61.5764 48.5027 65.6613 48.131 66.5897C48.131 66.7754 47.9452 66.9611 47.5735 66.7754C46.0868 66.2184 46.4585 60.4623 47.016 59.1626C47.3877 58.7912 47.5735 59.3483 47.9452 59.9053Z" fill="#EDE92F"/>
<path d="M73.9614 124.892L58.3513 38.1807L68.9439 36.3239L73.2181 36.6953L89.014 123.407L78.4214 125.264L73.9614 124.892Z" fill="#E6C82E"/>
<path d="M73.9328 124.975L84.5398 123.065L68.8805 36.27L58.2735 38.1805L73.9328 124.975Z" fill="#D4942A"/>
<path d="M74.5194 46.1652C76.5636 53.778 76.9353 61.9478 76.3778 61.9478C76.3778 61.9478 76.0061 61.9478 75.4486 60.2767C72.4752 52.4782 71.9177 40.9662 72.8469 40.9662C73.0327 40.9662 73.7761 43.5657 74.5194 46.1652Z" fill="#EDE92F"/>
<path d="M77.1211 65.847C78.2361 67.5181 78.4219 71.4174 78.0503 72.5314C78.0503 72.7171 77.8644 72.9028 77.6786 72.7171C76.1919 72.3457 75.8203 66.5897 76.1919 65.29C76.3778 64.733 76.7494 65.29 77.1211 65.847Z" fill="#EDE92F"/>
<path d="M9.8492 170.382L4.83168 82.3711L15.6101 81.6284L19.8842 82.5568L24.7159 170.568L14.1234 171.125L9.8492 170.382Z" fill="#E6C82E"/>
<path d="M9.81285 170.283L20.574 169.676L15.595 81.6199L4.83385 82.2274L9.81285 170.283Z" fill="#D4942A"/>
<path d="M19.8842 92.2133C20.9992 100.012 20.4417 108.182 19.6984 108.182C19.6984 108.182 19.5126 107.996 18.9551 106.325C16.9109 98.155 17.8401 86.643 18.5834 86.8286C19.1409 87.0143 19.5126 89.6138 19.8842 92.2133Z" fill="#EDE92F"/>
<path d="M20.0701 112.081C20.9992 113.752 20.6276 117.837 20.2559 118.765C20.2559 118.951 20.0701 119.137 19.6984 118.951C18.2117 118.394 18.5834 112.638 19.1409 111.338C19.5126 110.781 19.8842 111.338 20.0701 112.081Z" fill="#EDE92F"/>
<path d="M86.5986 174.282L80.8378 86.4568L70.0594 87.0138L65.9711 88.4992L71.7319 176.511L82.5103 175.768L86.5986 174.282Z" fill="#D4942A"/>
<path d="M80.8854 86.3803L70.1308 87.091L75.9564 175.094L86.7111 174.383L80.8854 86.3803Z" fill="#E6C82E"/>
<path d="M74.1478 94.4414C73.4044 102.24 76.0061 110.224 77.4928 110.224C77.6786 110.224 78.0503 110.038 78.6078 108.367C81.2094 100.012 77.3069 88.6854 75.4486 89.0568C74.7053 89.0568 74.5194 91.6562 74.1478 94.4414Z" fill="#EDE92F"/>
<path d="M77.4928 113.938C76.0061 115.794 77.3069 119.694 78.4219 120.622C78.6078 120.808 78.7936 120.993 79.5369 120.808C82.5103 119.879 80.6519 114.309 79.1653 113.195C78.4219 112.638 78.0503 113.381 77.4928 113.938Z" fill="#EDE92F"/>
<path d="M61.6969 124.521L62.4402 36.3239H51.8477L47.5735 37.2523L46.6443 125.449L57.4227 125.635L61.6969 124.521Z" fill="#D4942A"/>
<path d="M62.4874 36.3785L51.709 36.2769L50.8761 124.474L61.6545 124.576L62.4874 36.3785Z" fill="#E6C82E"/>
<path d="M55.3785 43.937C54.0777 51.7355 56.1218 59.9053 57.6085 59.9053C57.7944 59.9053 58.166 59.7197 58.9094 58.0486C62.2544 49.8787 59.0952 38.3667 57.2369 38.5524C56.1218 38.5524 55.7502 41.1519 55.3785 43.937Z" fill="#EDE92F"/>
<path d="M57.051 63.6189C55.5643 65.29 56.3077 69.3749 57.4227 70.3033C57.6085 70.489 57.7944 70.6746 58.5377 70.489C61.6969 69.9319 60.2102 63.9902 58.7235 62.8762C58.166 62.3191 57.6085 63.0619 57.051 63.6189Z" fill="#EDE92F"/>
<path d="M65.4136 143.275L78.9794 56.1917L68.3869 54.5206L64.1127 54.892L50.361 141.975L61.1394 143.646L65.4136 143.275Z" fill="#D4942A"/>
<path d="M79.0437 56.2467L68.3958 54.5797L54.7314 141.709L65.3793 143.377L79.0437 56.2467Z" fill="#E6C82E"/>
<path d="M70.8027 62.5048C68.3869 69.9319 69.1302 78.2874 70.6169 78.6587C70.8027 78.6587 71.1744 78.6587 72.1036 76.9876C76.5636 69.3748 75.0769 57.4915 73.2186 57.3058C72.4752 57.3058 71.7319 59.9053 70.8027 62.5048Z" fill="#EDE92F"/>
<path d="M69.6877 82.3723C67.8294 83.8577 68.2011 87.9426 69.1302 89.0567C69.3161 89.2424 69.5019 89.428 70.0594 89.428C73.2186 89.2424 72.6611 83.3007 71.3602 82.0009C70.9886 81.2582 70.2452 81.8152 69.6877 82.3723Z" fill="#EDE92F"/>
<path d="M39.7685 132.505L19.5126 46.5365L30.1051 44.1227L34.3793 44.3084L54.6352 130.092L44.0427 132.505H39.7685Z" fill="#E6C82E"/>
<path d="M39.6851 132.491L50.1789 130.032L30.0266 44.1638L19.5328 46.6224L39.6851 132.491Z" fill="#D4942A"/>
<path d="M36.0518 53.7779C38.4676 61.2051 39.3968 69.3749 38.6535 69.5606C38.6535 69.5606 38.2818 69.5606 37.7243 67.8895C34.3793 60.2767 33.0784 48.7646 34.0076 48.7646C34.3793 48.579 35.3085 51.1784 36.0518 53.7779Z" fill="#EDE92F"/>
<path d="M39.7685 73.0884C40.8835 74.5739 41.441 78.6588 41.0693 79.5872C41.0693 79.7728 40.8835 79.9585 40.6976 79.9585C39.211 79.5872 38.4676 73.8311 38.8393 72.5314C39.0251 72.16 39.3968 72.7171 39.7685 73.0884Z" fill="#EDE92F"/>
<path d="M33.4501 153.486L47.2018 66.4033L36.6093 64.7322L32.3351 65.1035L18.5834 152.186L29.1759 153.857L33.4501 153.486Z" fill="#D4942A"/>
<path d="M47.2889 66.2889L36.641 64.6218L22.9766 151.752L33.6246 153.419L47.2889 66.2889Z" fill="#E6C82E"/>
<path d="M39.0251 72.717C36.6093 80.1442 37.3526 88.4997 38.8393 88.871C39.0251 88.871 39.3968 88.871 40.326 87.1999C44.786 79.5871 43.2993 67.7037 41.441 67.5181C40.6976 67.5181 39.7685 70.1176 39.0251 72.717Z" fill="#EDE92F"/>
<path d="M37.9101 92.3989C36.0518 93.8843 36.4235 97.9692 37.3526 99.0833C37.5385 99.269 37.7243 99.4546 38.2818 99.4546C41.441 99.269 40.8835 93.3273 39.5826 92.0275C39.0251 91.4705 38.4676 92.0275 37.9101 92.3989Z" fill="#EDE92F"/>
<path d="M93.4745 250.225H13.0084L0 122.479H106.483L93.4745 250.225Z" fill="#FF4A32"/>
<path d="M93.4745 249.482C69.5019 235.742 42.9276 215.318 32.1493 182.267C24.9018 159.986 27.1318 138.633 28.0609 122.479H0L13.0084 250.225H93.4745V249.482Z" fill="#E8312E"/>
<path d="M53.1485 223.673C65.3619 223.673 75.2627 208.71 75.2627 190.251C75.2627 171.793 65.3619 156.829 53.1485 156.829C40.9352 156.829 31.0343 171.793 31.0343 190.251C31.0343 208.71 40.9352 223.673 53.1485 223.673Z" fill="#FFF6F8"/>
<path d="M53.1485 223.673C54.6352 223.673 56.3077 223.488 57.7944 222.93C46.8302 211.975 37.7243 198.792 32.3351 182.267C32.1493 181.896 32.1493 181.524 31.9634 181.153C31.4059 184.124 31.0343 187.095 31.0343 190.251C31.0343 208.819 40.8835 223.673 53.1485 223.673Z" fill="#FFDCCB"/>
<path d="M190.108 296.088H48.3168C36.4235 296.088 26.9459 286.432 26.9459 274.735V273.063H211.479V274.735C211.479 286.432 201.816 296.088 190.108 296.088Z" fill="#FFAD4B"/>
<path d="M211.479 273.063H26.9459V282.533C29.1759 283.09 32.7068 279.934 38.4676 279.377C49.0602 278.448 52.2193 287.918 62.626 287.361C70.6169 286.989 70.4311 281.605 78.2361 281.419C88.2711 281.233 91.4303 290.517 100.722 289.403C107.04 288.66 106.855 284.204 112.987 283.461C123.208 282.347 127.854 293.488 136.588 291.446C141.977 290.146 141.234 285.69 146.809 284.39C155.171 282.533 159.817 292.188 167.251 290.332C173.011 288.846 172.268 282.162 178.029 280.676C186.577 278.262 195.497 291.446 199.957 288.66C202.745 286.804 200.143 280.862 203.674 278.448C205.904 276.963 209.063 278.262 211.479 278.82V273.063Z" fill="#DE7441"/>
<path d="M26.9459 274.549V285.504C26.9459 291.446 31.7776 296.088 37.5385 296.088H99.9787C97.0053 294.973 94.5895 293.488 93.8462 291.074C92.5453 286.432 99.2353 283.276 98.492 279.748C97.7487 276.406 90.5011 274.178 80.0944 273.063H38.6535C34.5651 273.435 30.6626 273.992 26.9459 274.549Z" fill="#DE7441"/>
<path d="M27.6893 266.565C27.3176 267.493 23.4151 276.034 26.0168 278.448C28.0609 280.305 31.7776 276.22 38.2818 275.849C48.8743 274.92 52.0335 284.39 62.4402 283.833C70.4311 283.461 70.2452 278.077 78.0503 277.891C88.0853 277.705 91.2445 286.989 100.536 285.875C106.855 285.133 106.669 280.676 112.801 279.934C123.022 278.819 127.668 289.96 136.402 287.918C141.791 286.618 141.048 282.162 146.623 280.862C154.986 279.005 159.631 288.66 167.065 286.804C172.826 285.318 172.082 278.634 177.843 277.148C186.391 274.735 195.312 287.918 199.772 285.132C202.559 283.276 199.957 277.334 203.488 274.92C207.019 272.506 212.408 276.777 214.267 274.92C216.125 272.878 211.851 266.193 211.665 265.822C197.913 244.84 41.2551 237.042 27.6893 266.565Z" fill="#7FCF33"/>
<path d="M27.6893 266.565C27.5034 267.122 26.0168 270.093 25.4593 273.063C25.6451 273.435 25.8309 273.806 26.0168 273.992C28.0609 275.849 31.7776 271.764 38.2818 271.392C48.8743 270.464 52.0335 279.934 62.4402 279.377C70.4311 279.005 70.2452 273.621 78.0503 273.435C88.0853 273.249 91.2445 282.533 100.536 281.419C106.855 280.676 106.669 276.22 112.801 275.477C123.022 274.363 127.668 285.504 136.402 283.461C141.791 282.162 141.048 277.705 146.623 276.406C154.986 274.549 159.631 284.204 167.065 282.347C172.826 280.862 172.082 274.178 177.843 272.692C186.391 270.278 195.312 283.461 199.772 280.676C202.559 278.819 199.957 272.878 203.488 270.464C207.019 268.236 212.222 272.135 214.081 270.65C213.152 268.236 211.665 265.822 211.479 265.636C197.913 244.84 41.2551 237.042 27.6893 266.565Z" fill="#76BF2F"/>
<path d="M211.479 265.636C207.391 260.066 193.639 255.424 175.427 252.267C134.915 250.411 73.7761 252.453 39.9543 256.724C33.8218 259.323 29.5476 262.665 27.6893 266.565C27.5034 266.936 26.9459 268.05 26.3884 269.535C27.3176 269.907 28.4326 270.093 29.1759 270.278C36.4235 271.949 39.9543 270.464 51.476 271.021C57.6085 271.392 58.9094 271.949 65.2277 272.692C77.6786 273.992 82.5103 273.063 96.6337 272.878C110.571 272.878 108.341 273.992 131.57 274.734C143.65 275.106 151.083 275.477 161.304 274.92C170.224 274.549 173.197 273.992 176.171 273.435C176.728 273.063 177.286 272.878 177.843 272.692C179.144 272.321 180.445 272.321 181.746 272.506C183.976 272.321 186.763 271.949 190.851 271.764C196.241 271.578 201.816 271.392 207.391 268.05C208.506 267.864 209.992 266.75 211.479 265.636Z" fill="#549E27"/>
<path d="M97.0053 284.761C99.2353 285.875 101.465 284.947 102.395 284.575C104.81 283.647 106.483 281.419 106.297 281.233C106.111 281.048 104.996 282.347 102.766 282.904C98.6778 284.018 95.147 281.605 94.7753 282.162C94.4037 282.719 95.5187 284.018 97.0053 284.761Z" fill="#A6F03A"/>
<path d="M131.57 286.432C133.8 287.546 136.03 286.618 136.96 286.247C139.375 285.318 141.048 283.09 140.862 282.904C140.676 282.719 139.561 284.018 137.331 284.575C133.243 285.69 129.712 283.276 129.34 283.833C128.969 284.39 130.27 285.69 131.57 286.432Z" fill="#A6F03A"/>
<path d="M162.047 285.318C164.277 286.432 166.507 285.504 167.436 285.133C169.852 284.204 171.525 281.976 171.339 281.79C171.153 281.605 170.038 282.904 167.808 283.461C163.72 284.575 160.189 282.162 159.817 282.719C159.446 283.276 160.561 284.575 162.047 285.318Z" fill="#A6F03A"/>
<path d="M197.356 283.647C194.94 283.833 193.081 282.347 192.338 281.79C190.294 280.119 189.365 277.705 189.736 277.52C189.922 277.334 190.666 279.005 192.524 280.119C196.055 282.533 200.143 281.419 200.329 282.162C200.515 282.904 198.842 283.647 197.356 283.647Z" fill="#A6F03A"/>
<path d="M212.408 273.992C210.736 274.549 209.249 273.62 208.692 273.435C207.019 272.506 206.09 271.021 206.276 271.021C206.462 270.835 207.205 271.764 208.506 272.506C211.293 273.62 213.895 272.321 214.081 272.878C214.452 272.878 213.337 273.62 212.408 273.992Z" fill="#A6F03A"/>
<path d="M137.331 256.538C137.331 253.01 114.288 250.039 86.0411 250.039C57.7944 250.039 34.751 253.01 34.751 256.538C34.751 257.652 34.751 261.18 34.751 262.294C34.751 265.822 57.7944 268.793 86.0411 268.793C114.288 268.793 137.331 265.822 137.331 262.294C137.331 261.366 137.331 257.652 137.331 256.538Z" fill="#FF4A32"/>
<path d="M128.597 264.151C124.88 265.822 119.491 264.894 119.305 264.151C118.934 263.037 130.084 260.623 131.199 261.737C131.756 262.108 130.084 263.408 128.597 264.151Z" fill="#FFF6F8"/>
<path d="M86.0411 263.037C114.368 263.037 137.331 260.127 137.331 256.538C137.331 252.949 114.368 250.039 86.0411 250.039C57.7143 250.039 34.751 252.949 34.751 256.538C34.751 260.127 57.7143 263.037 86.0411 263.037Z" fill="#E0412C"/>
<path d="M114.288 266.008C114.66 266.75 115.775 266.936 116.704 266.379C117.261 266.008 117.633 265.079 117.447 264.337C117.261 263.594 116.518 263.223 115.775 263.223C114.66 263.223 113.73 265.079 114.288 266.008Z" fill="#FFF6F8"/>
<path d="M135.845 255.053C135.845 255.053 136.03 255.053 136.03 255.238C136.03 255.238 136.03 255.053 135.845 255.053Z" fill="#BF3930"/>
<path d="M136.402 255.424C136.402 255.424 136.588 255.424 136.588 255.61C136.588 255.424 136.588 255.424 136.402 255.424Z" fill="#BF3930"/>
<path d="M135.101 254.681C135.287 254.681 135.287 254.681 135.473 254.867C135.287 254.867 135.287 254.867 135.101 254.681Z" fill="#BF3930"/>
<path d="M134.358 254.496C134.544 254.496 134.544 254.496 134.73 254.681C134.544 254.496 134.544 254.496 134.358 254.496Z" fill="#BF3930"/>
<path d="M133.429 254.124C133.615 254.124 133.615 254.124 133.8 254.31C133.615 254.124 133.429 254.124 133.429 254.124Z" fill="#BF3930"/>
<path d="M99.2353 262.851C99.4212 263.965 99.7928 267.493 99.9787 268.607C121.535 267.864 137.331 265.265 137.331 262.48C137.331 261.366 137.331 257.838 137.331 256.724C137.331 259.509 121.164 262.108 99.2353 262.851Z" fill="#DB372B"/>
<path d="M136.588 255.61L136.774 255.795C136.774 255.61 136.774 255.61 136.588 255.61Z" fill="#E0412C"/>
<path d="M134.73 254.496C134.915 254.496 135.101 254.681 135.287 254.681C135.101 254.681 134.915 254.681 134.73 254.496Z" fill="#E0412C"/>
<path d="M132.5 253.939C132.871 253.939 133.057 254.124 133.429 254.124C133.057 253.939 132.871 253.939 132.5 253.939Z" fill="#E0412C"/>
<path d="M133.8 254.124C133.986 254.124 134.172 254.31 134.358 254.31C134.172 254.31 133.986 254.31 133.8 254.124Z" fill="#E0412C"/>
<path d="M136.96 255.795L137.145 255.981C137.145 255.981 137.145 255.981 136.96 255.795Z" fill="#E0412C"/>
<path d="M136.216 255.238C136.402 255.238 136.402 255.424 136.588 255.424C136.402 255.424 136.216 255.238 136.216 255.238Z" fill="#E0412C"/>
<path d="M135.473 254.867C135.659 254.867 135.659 255.053 135.845 255.053C135.659 255.053 135.659 254.867 135.473 254.867Z" fill="#E0412C"/>
<path d="M137.331 256.167C137.145 256.167 137.145 256.167 137.331 256.167C137.145 255.981 137.145 255.981 137.145 255.795C137.145 255.795 137.145 255.795 136.96 255.61L136.774 255.424C136.774 255.424 136.588 255.424 136.588 255.238C136.402 255.238 136.402 255.053 136.216 255.053C136.216 255.053 136.03 255.053 136.03 254.867C135.845 254.867 135.845 254.681 135.659 254.681C135.473 254.681 135.473 254.681 135.287 254.496C135.101 254.496 134.915 254.31 134.73 254.31C134.544 254.31 134.544 254.31 134.358 254.124C134.172 254.124 133.986 253.939 133.8 253.939C133.615 253.939 133.615 253.939 133.429 253.753C133.243 253.753 132.871 253.567 132.5 253.567H132.314C112.615 256.167 98.8637 259.88 99.2353 262.666C121.164 261.923 137.331 259.509 137.331 256.352C137.331 256.538 137.331 256.352 137.331 256.167Z" fill="#BF3930"/>
<path d="M204.975 253.939C204.603 250.411 181.374 249.482 153.127 252.082C124.88 254.496 102.395 259.509 102.952 263.037C103.138 264.151 103.51 267.679 103.695 268.793C104.067 272.321 127.296 273.249 155.543 270.65C183.79 268.236 206.276 263.223 205.718 259.695C205.532 258.581 205.161 254.867 204.975 253.939Z" fill="#FF4A32"/>
<path d="M197.356 262.108C194.011 263.965 188.436 263.594 188.064 262.851C187.506 261.737 198.471 258.395 199.586 259.509C200.143 259.88 198.656 261.366 197.356 262.108Z" fill="#FFF6F8"/>
<path d="M204.975 253.939C205.347 257.466 182.861 262.294 154.8 264.894C126.553 267.307 103.51 266.565 102.952 263.037C102.58 259.509 125.066 254.681 153.127 252.082C181.374 249.482 204.603 250.411 204.975 253.939Z" fill="#E0412C"/>
<path d="M183.232 265.265C183.604 266.008 184.905 266.008 185.648 265.451C186.02 265.079 186.577 264.151 186.206 263.408C185.834 262.665 185.091 262.294 184.533 262.48C183.232 262.48 182.675 264.336 183.232 265.265Z" fill="#FFF6F8"/>
<path d="M146.065 254.124C146.065 254.124 113.359 257.095 111.315 260.437C109.27 263.779 131.756 263.965 144.207 263.594C156.658 263.222 149.411 261.366 145.88 259.323C142.535 257.095 155.357 253.381 146.065 254.124Z" fill="#DB372B"/>
<path opacity="0.39" d="M153.313 251.896C146.251 252.453 139.561 253.196 133.615 254.124C125.995 251.71 107.598 250.039 86.0411 250.039C57.7944 250.039 34.751 253.01 34.751 256.538C34.751 258.58 41.9985 260.252 53.3344 261.551H181.002C195.683 259.138 205.347 256.167 205.161 253.939C204.603 250.411 181.374 249.482 153.313 251.896Z" fill="#85321A"/>
<path d="M194.568 257.281H44.9718C35.1226 257.281 27.3176 249.297 27.3176 239.641C27.3176 229.801 35.3085 222.002 44.9718 222.002H194.568C204.417 222.002 212.222 229.986 212.222 239.641C212.222 249.297 204.417 257.281 194.568 257.281Z" fill="#D64F2A"/>
<path d="M196.798 221.816H39.7685C32.7068 221.816 27.1318 227.387 27.1318 234.442V244.655C27.1318 251.711 32.7068 257.281 39.7685 257.281H52.591C52.2193 255.795 52.2193 254.31 52.7768 252.639C57.2369 240.013 96.6337 244.469 125.624 245.026C146.623 245.397 176.171 243.912 212.222 235.557C211.293 227.758 204.603 221.816 196.798 221.816Z" fill="#A33C20"/>
<path d="M36.6822 213.015L25.8536 219.876L60.0864 273.817L70.9151 266.956L36.6822 213.015Z" fill="#85321A"/>
<path d="M70.5211 212.998L59.6925 219.86L93.9318 273.801L104.76 266.939L70.5211 212.998Z" fill="#85321A"/>
<path d="M104.319 212.996L93.4901 219.856L127.723 273.797L138.552 266.937L104.319 212.996Z" fill="#85321A"/>
<path d="M138.158 212.972L127.329 219.834L161.569 273.775L172.397 266.913L138.158 212.972Z" fill="#85321A"/>
<path d="M171.955 212.976L161.127 219.837L195.359 273.777L206.188 266.917L171.955 212.976Z" fill="#85321A"/>
<path d="M218.541 231.472C216.311 181.339 172.826 141.418 119.677 141.418C66.5286 141.418 23.0434 181.339 20.8134 231.472H218.541Z" fill="#FFAD4B"/>
<path d="M199.735 211.184C206.728 204.998 202.524 188.843 190.345 175.1C178.167 161.356 162.626 155.23 155.633 161.416C148.641 167.602 152.845 183.758 165.023 197.501C177.201 211.244 192.743 217.37 199.735 211.184Z" fill="#FFC94B"/>
<path d="M143.65 216.989C137.145 214.946 98.3062 203.063 89.3861 173.54C86.4128 163.699 87.5278 154.044 90.3153 145.688C51.2902 157.201 22.6717 190.994 20.8134 231.472H218.541C218.355 226.273 217.612 221.259 216.497 216.246C196.798 222.002 171.153 225.53 143.65 216.989Z" fill="#F07D46"/>
<path d="M123.345 184.459C123.241 183.542 121.256 183.014 118.91 183.279C116.564 183.545 114.747 184.503 114.851 185.42C114.955 186.337 116.941 186.866 119.286 186.6C121.632 186.335 123.449 185.377 123.345 184.459Z" fill="#FFF6F8"/>
<path d="M161.972 163.613C162.517 162.868 161.414 161.135 159.509 159.743C157.603 158.351 155.616 157.827 155.071 158.572C154.526 159.317 155.629 161.05 157.534 162.442C159.44 163.834 161.427 164.358 161.972 163.613Z" fill="#FFF6F8"/>
<path d="M161.9 211.433C162.66 210.907 162.187 208.909 160.843 206.97C159.5 205.03 157.796 203.883 157.036 204.408C156.276 204.933 156.749 206.932 158.092 208.871C159.436 210.811 161.14 211.958 161.9 211.433Z" fill="#FFF6F8"/>
<path d="M206.315 213.04C207.075 212.515 206.602 210.517 205.259 208.577C203.916 206.638 202.211 205.491 201.451 206.016C200.692 206.541 201.165 208.539 202.508 210.479C203.851 212.419 205.556 213.565 206.315 213.04Z" fill="#FFF6F8"/>
<path d="M63.6834 201.579C64.2802 202.284 66.2244 201.619 68.026 200.095C69.8276 198.572 70.8043 196.765 70.2075 196.061C69.6107 195.356 67.6664 196.021 65.8648 197.545C64.0632 199.069 63.0866 200.875 63.6834 201.579Z" fill="#FFDCCB"/>
<path d="M176.192 190.552C176.789 191.257 178.733 190.592 180.535 189.069C182.337 187.545 183.313 185.738 182.716 185.034C182.12 184.33 180.175 184.994 178.374 186.518C176.572 188.042 175.596 189.848 176.192 190.552Z" fill="#FFF6F8"/>
<path d="M183.31 215.751C183.907 216.455 185.851 215.791 187.653 214.267C189.455 212.743 190.432 210.937 189.835 210.232C189.238 209.528 187.294 210.192 185.492 211.716C183.69 213.24 182.713 215.046 183.31 215.751Z" fill="#FFF6F8"/>
<path d="M75.7001 177.436C76.4598 176.911 75.9868 174.912 74.6436 172.973C73.3004 171.033 71.5958 169.886 70.8361 170.411C70.0765 170.937 70.5495 172.935 71.8926 174.874C73.2358 176.814 74.9405 177.961 75.7001 177.436Z" fill="#FFDCCB"/>
<path d="M96.1188 194.682C96.8785 194.157 96.4054 192.159 95.0623 190.219C93.7191 188.279 92.0144 187.133 91.2548 187.658C90.4951 188.183 90.9682 190.181 92.3113 192.121C93.6545 194.061 95.3592 195.207 96.1188 194.682Z" fill="#FFDCCB"/>
<path d="M125.371 163.216C125.916 162.47 124.813 160.738 122.907 159.346C121.001 157.955 119.015 157.43 118.47 158.175C117.925 158.92 119.028 160.653 120.933 162.045C122.839 163.436 124.826 163.961 125.371 163.216Z" fill="#FFF6F8"/>
<path d="M98.0345 158.733C98.5796 157.988 97.4766 156.256 95.5709 154.864C93.6652 153.472 91.6785 152.948 91.1334 153.693C90.5884 154.438 91.6914 156.17 93.597 157.562C95.5027 158.954 97.4895 159.478 98.0345 158.733Z" fill="#FFF6F8"/>
<path d="M147.873 185.016C148.077 185.916 150.109 186.224 152.411 185.703C154.713 185.182 156.414 184.03 156.21 183.13C156.006 182.23 153.975 181.923 151.672 182.443C149.37 182.964 147.669 184.116 147.873 185.016Z" fill="#FFF6F8"/>
<path d="M89.9378 220.091C90.1418 220.991 92.1735 221.299 94.4757 220.778C96.778 220.257 98.479 219.105 98.275 218.205C98.0711 217.305 96.0394 216.997 93.7371 217.518C91.4349 218.039 89.7339 219.191 89.9378 220.091Z" fill="#FFDCCB"/>
<path d="M39.9844 194.87C40.1884 195.77 42.2201 196.078 44.5223 195.557C46.8246 195.036 48.5256 193.884 48.3216 192.984C48.1177 192.084 46.086 191.777 43.7837 192.297C41.4815 192.818 39.7805 193.97 39.9844 194.87Z" fill="#FFDCCB"/>
<path d="M128.649 203.025C128.853 203.926 130.885 204.233 133.187 203.712C135.489 203.192 137.19 202.04 136.986 201.14C136.782 200.239 134.751 199.932 132.449 200.453C130.146 200.973 128.445 202.125 128.649 203.025Z" fill="#FFF6F8"/>
<path d="M118.378 222.765C118.582 223.666 120.613 223.973 122.916 223.452C125.218 222.932 126.919 221.78 126.715 220.88C126.511 219.979 124.479 219.672 122.177 220.193C119.875 220.713 118.174 221.865 118.378 222.765Z" fill="#FFDCCB"/>
<path d="M46.9838 220.455C47.1877 221.355 49.2194 221.663 51.5217 221.142C53.8239 220.621 55.5249 219.47 55.321 218.569C55.117 217.669 53.0853 217.362 50.7831 217.883C48.4808 218.403 46.7798 219.555 46.9838 220.455Z" fill="#FFDCCB"/>
<path d="M44.0427 257.281H107.412L74.1478 274.363L44.0427 257.281Z" fill="#E6C82E"/>
<path d="M139.561 257.281H202.745L169.481 274.363L139.561 257.281Z" fill="#E6C82E"/>
<path d="M107.412 257.281H44.0427L51.8477 261.737H98.8637L107.412 257.281Z" fill="#D4942A"/>
<path d="M147.18 261.737H194.196L202.745 257.281H139.561L147.18 261.737Z" fill="#D4942A"/>
<path d="M76.1919 265.822C79.9086 262.48 85.8553 263.037 86.227 264.337C86.7845 266.193 74.8911 272.135 73.5903 270.464C72.8469 269.721 74.7053 267.122 76.1919 265.822Z" fill="#FFF6F8"/>
<path d="M171.711 266.379C175.427 263.037 181.374 263.594 181.746 264.894C182.303 266.75 170.41 272.692 169.109 271.021C168.551 270.278 170.224 267.679 171.711 266.379Z" fill="#FFF6F8"/>
<path d="M164.835 267.864C165.206 268.607 166.507 268.793 167.436 268.236C167.994 267.864 168.551 267.122 168.18 266.193C167.994 265.451 167.065 265.079 166.507 265.079C165.392 265.265 164.463 266.936 164.835 267.864Z" fill="#FFF6F8"/>
<path d="M167.994 100.012L160.189 125.078L192.338 120.622L167.994 100.012Z" fill="#FF4A32"/>
<path d="M168.911 99.1728L168.028 98.8845L147.883 160.478L148.767 160.767L168.911 99.1728Z" fill="#FFF6F8"/>
</g>
<defs>
<clipPath id="clip0_60_260">
<rect width="241.584" height="305" fill="white"/>
</clipPath>
</defs>
</svg>
