<svg width="60" height="60" viewBox="0 0 60 60" fill="none" xmlns="http://www.w3.org/2000/svg">
<path d="M45 0H15C6.72 0 0 6.72 0 15V45C0 53.28 6.72 60 15 60H45C53.28 60 60 53.28 60 45V15C60 6.72 53.28 0 45 0Z" fill="#FF6C44"/>
<path d="M46.8424 37.5819H44.7069V34.9113C44.7069 33.1229 43.3212 31.6684 41.6173 31.6684H21.7164C21.0803 31.6684 20.5806 32.1929 20.5806 32.8606C20.5806 33.5283 21.0803 34.0529 21.7164 34.0529H41.6173C42.0717 34.0529 42.4352 34.4344 42.4352 34.9113V37.5581H17.0138C17.0138 37.5581 16.9684 36.8189 16.9684 36.4612C16.9684 28.4254 22.8751 21.8681 30.1448 21.8681C34.1886 21.8681 37.9597 23.8949 40.4814 27.4001C40.8676 27.9247 41.5719 28.0439 42.0717 27.6385C42.5715 27.2332 42.6851 26.494 42.2989 25.9694C39.5046 22.0827 35.4153 19.7697 30.9626 19.5074V17.266C31.3488 16.9321 31.5987 16.4314 31.5987 15.8591C31.5987 14.8338 30.8036 13.9992 29.8267 13.9992C28.8499 13.9992 28.0547 14.8338 28.0547 15.8591C28.0547 16.4314 28.3046 16.9321 28.6908 17.266V19.412H12.4703C11.8342 19.412 11.3344 19.9366 11.3344 20.6043C11.3344 21.2719 11.8342 21.7965 12.4703 21.7965H22.4207C20.9213 22.7503 19.581 23.9664 18.4678 25.3971H12.8792C12.2431 25.3971 11.7433 25.9217 11.7433 26.5894C11.7433 27.257 12.2431 27.7816 12.8792 27.7816H16.8775C16.2414 28.95 15.7189 30.2138 15.3554 31.5491H13.0382C12.4248 31.5491 11.9478 32.0737 11.9478 32.7414C11.9478 33.409 12.4475 33.9336 13.0382 33.9336H14.8784C14.7648 34.7682 14.7421 37.5819 14.7421 37.5819H12.6974C12.0613 37.5819 11.5616 38.1065 11.5616 38.7742C11.5616 39.4418 12.0613 39.9664 12.6974 39.9664H15.9915H17.968C17.6954 40.5149 17.5591 41.1587 17.5591 41.8025C17.5591 44.1154 19.3538 45.9992 21.5574 45.9992C23.7611 45.9992 25.5558 44.1154 25.5558 41.8025C25.5558 41.1348 25.3967 40.5149 25.1468 39.9664H34.5521C34.2794 40.5149 34.1431 41.1587 34.1431 41.8025C34.1431 44.1154 35.9378 45.9992 38.1415 45.9992C40.3451 45.9992 42.1398 44.1154 42.1398 41.8025C42.1398 41.1348 41.9808 40.5149 41.7309 39.9664H46.8651C47.5012 39.9664 48.001 39.4418 48.001 38.7742C48.001 38.1065 47.4558 37.5819 46.8424 37.5819ZM21.5574 43.6147C20.6033 43.6147 19.8309 42.804 19.8309 41.8025C19.8309 40.801 20.6033 39.9903 21.5574 39.9903C22.5116 39.9903 23.284 40.801 23.284 41.8025C23.284 42.804 22.5116 43.6147 21.5574 43.6147ZM38.1188 43.6147C37.1646 43.6147 36.3922 42.804 36.3922 41.8025C36.3922 40.801 37.1646 39.9903 38.1188 39.9903C39.0729 39.9903 39.8453 40.801 39.8453 41.8025C39.8453 42.804 39.0729 43.6147 38.1188 43.6147Z" fill="white"/>
</svg>
